<svg xmlns="http://www.w3.org/2000/svg" xmlns:xlink="http://www.w3.org/1999/xlink" width="500" zoomAndPan="magnify" viewBox="0 0 375 374.999991" height="500" preserveAspectRatio="xMidYMid meet" version="1.0"><path fill="#000000" d="M 187.5 83.195312 C 185.792969 83.195312 184.085938 83.238281 182.382812 83.320312 C 180.675781 83.40625 178.976562 83.53125 177.277344 83.699219 C 175.578125 83.863281 173.882812 84.074219 172.195312 84.324219 C 170.507812 84.574219 168.824219 84.867188 167.152344 85.199219 C 165.476562 85.53125 163.8125 85.90625 162.15625 86.320312 C 160.5 86.734375 158.855469 87.191406 157.222656 87.6875 C 155.589844 88.183594 153.96875 88.71875 152.359375 89.292969 C 150.753906 89.867188 149.160156 90.480469 147.585938 91.136719 C 146.007812 91.789062 144.445312 92.480469 142.902344 93.210938 C 141.359375 93.941406 139.835938 94.707031 138.332031 95.511719 C 136.824219 96.316406 135.339844 97.15625 133.875 98.035156 C 132.414062 98.914062 130.972656 99.824219 129.550781 100.773438 C 128.132812 101.722656 126.738281 102.703125 125.367188 103.722656 C 123.996094 104.738281 122.648438 105.789062 121.328125 106.871094 C 120.011719 107.953125 118.71875 109.070312 117.453125 110.214844 C 116.1875 111.363281 114.953125 112.539062 113.746094 113.746094 C 112.539062 114.953125 111.363281 116.1875 110.214844 117.453125 C 109.070312 118.71875 107.953125 120.011719 106.871094 121.328125 C 105.789062 122.648438 104.738281 123.996094 103.722656 125.367188 C 102.703125 126.738281 101.722656 128.132812 100.773438 129.550781 C 99.824219 130.972656 98.914062 132.414062 98.035156 133.875 C 97.15625 135.339844 96.316406 136.824219 95.511719 138.332031 C 94.707031 139.835938 93.941406 141.359375 93.210938 142.902344 C 92.480469 144.445312 91.789062 146.007812 91.136719 147.585938 C 90.480469 149.160156 89.867188 150.753906 89.292969 152.359375 C 88.71875 153.96875 88.183594 155.589844 87.6875 157.222656 C 87.191406 158.855469 86.734375 160.5 86.320312 162.15625 C 85.90625 163.8125 85.53125 165.476562 85.199219 167.152344 C 84.867188 168.824219 84.574219 170.507812 84.324219 172.195312 C 84.074219 173.882812 83.863281 175.578125 83.699219 177.277344 C 83.53125 178.976562 83.40625 180.675781 83.320312 182.382812 C 83.238281 184.085938 83.195312 185.792969 83.195312 187.5 C 83.195312 189.207031 83.238281 190.914062 83.320312 192.617188 C 83.40625 194.324219 83.53125 196.023438 83.699219 197.722656 C 83.863281 199.421875 84.074219 201.117188 84.324219 202.804688 C 84.574219 204.492188 84.867188 206.175781 85.199219 207.847656 C 85.53125 209.523438 85.90625 211.1875 86.320312 212.84375 C 86.734375 214.5 87.191406 216.144531 87.6875 217.777344 C 88.183594 219.410156 88.71875 221.03125 89.292969 222.640625 C 89.867188 224.246094 90.480469 225.839844 91.136719 227.414062 C 91.789062 228.992188 92.480469 230.554688 93.210938 232.097656 C 93.941406 233.640625 94.707031 235.164062 95.511719 236.667969 C 96.316406 238.175781 97.15625 239.660156 98.035156 241.125 C 98.914062 242.585938 99.824219 244.027344 100.773438 245.449219 C 101.722656 246.867188 102.703125 248.261719 103.722656 249.632812 C 104.738281 251.003906 105.789062 252.351562 106.871094 253.671875 C 107.953125 254.988281 109.070312 256.28125 110.214844 257.546875 C 111.363281 258.8125 112.539062 260.046875 113.746094 261.253906 C 114.953125 262.460938 116.1875 263.636719 117.453125 264.785156 C 118.71875 265.929688 120.011719 267.046875 121.328125 268.128906 C 122.648438 269.210938 123.996094 270.261719 125.367188 271.277344 C 126.738281 272.296875 128.132812 273.277344 129.550781 274.226562 C 130.972656 275.175781 132.414062 276.085938 133.875 276.964844 C 135.339844 277.84375 136.824219 278.683594 138.332031 279.488281 C 139.835938 280.292969 141.359375 281.058594 142.902344 281.789062 C 144.445312 282.519531 146.007812 283.210938 147.585938 283.863281 C 149.160156 284.519531 150.753906 285.132812 152.359375 285.707031 C 153.96875 286.28125 155.589844 286.816406 157.222656 287.3125 C 158.855469 287.808594 160.5 288.265625 162.15625 288.679688 C 163.8125 289.09375 165.476562 289.46875 167.152344 289.800781 C 168.824219 290.132812 170.507812 290.425781 172.195312 290.675781 C 173.882812 290.925781 175.578125 291.136719 177.277344 291.300781 C 178.976562 291.46875 180.675781 291.59375 182.382812 291.679688 C 184.085938 291.761719 185.792969 291.804688 187.5 291.804688 C 189.207031 291.804688 190.914062 291.761719 192.617188 291.679688 C 194.324219 291.59375 196.023438 291.46875 197.722656 291.300781 C 199.421875 291.136719 201.117188 290.925781 202.804688 290.675781 C 204.492188 290.425781 206.175781 290.132812 207.847656 289.800781 C 209.523438 289.46875 211.1875 289.09375 212.84375 288.679688 C 214.5 288.265625 216.144531 287.808594 217.777344 287.3125 C 219.410156 286.816406 221.03125 286.28125 222.640625 285.707031 C 224.246094 285.132812 225.839844 284.519531 227.414062 283.863281 C 228.992188 283.210938 230.554688 282.519531 232.097656 281.789062 C 233.640625 281.058594 235.164062 280.292969 236.667969 279.488281 C 238.175781 278.683594 239.660156 277.84375 241.125 276.964844 C 242.585938 276.085938 244.027344 275.175781 245.449219 274.226562 C 246.867188 273.277344 248.261719 272.296875 249.632812 271.277344 C 251.003906 270.261719 252.351562 269.210938 253.671875 268.128906 C 254.988281 267.046875 256.28125 265.929688 257.546875 264.785156 C 258.8125 263.636719 260.046875 262.460938 261.253906 261.253906 C 262.460938 260.046875 263.636719 258.8125 264.785156 257.546875 C 265.929688 256.28125 267.046875 254.988281 268.128906 253.671875 C 269.210938 252.351562 270.261719 251.003906 271.277344 249.632812 C 272.296875 248.261719 273.277344 246.867188 274.226562 245.449219 C 275.175781 244.027344 276.085938 242.585938 276.964844 241.125 C 277.84375 239.660156 278.683594 238.175781 279.488281 236.667969 C 280.292969 235.164062 281.058594 233.640625 281.789062 232.097656 C 282.519531 230.554688 283.210938 228.992188 283.863281 227.414062 C 284.519531 225.839844 285.132812 224.246094 285.707031 222.640625 C 286.28125 221.03125 286.816406 219.410156 287.3125 217.777344 C 287.808594 216.144531 288.265625 214.5 288.679688 212.84375 C 289.09375 211.1875 289.46875 209.523438 289.800781 207.847656 C 290.132812 206.175781 290.425781 204.492188 290.675781 202.804688 C 290.925781 201.117188 291.136719 199.421875 291.300781 197.722656 C 291.46875 196.023438 291.59375 194.324219 291.679688 192.617188 C 291.761719 190.914062 291.804688 189.207031 291.804688 187.5 C 291.804688 185.792969 291.761719 184.085938 291.679688 182.382812 C 291.59375 180.675781 291.46875 178.976562 291.300781 177.277344 C 291.136719 175.578125 290.925781 173.882812 290.675781 172.195312 C 290.425781 170.507812 290.132812 168.824219 289.800781 167.152344 C 289.46875 165.476562 289.09375 163.8125 288.679688 162.15625 C 288.265625 160.5 287.808594 158.855469 287.3125 157.222656 C 286.816406 155.589844 286.28125 153.96875 285.707031 152.359375 C 285.132812 150.753906 284.519531 149.160156 283.863281 147.585938 C 283.210938 146.007812 282.519531 144.445312 281.789062 142.902344 C 281.058594 141.359375 280.292969 139.835938 279.488281 138.332031 C 278.683594 136.824219 277.84375 135.339844 276.964844 133.875 C 276.085938 132.414062 275.175781 130.972656 274.226562 129.550781 C 273.277344 128.132812 272.296875 126.738281 271.277344 125.367188 C 270.261719 123.996094 269.210938 122.648438 268.128906 121.328125 C 267.046875 120.011719 265.929688 118.71875 264.785156 117.453125 C 263.636719 116.1875 262.460938 114.953125 261.253906 113.746094 C 260.046875 112.539062 258.8125 111.363281 257.546875 110.214844 C 256.28125 109.070312 254.988281 107.953125 253.671875 106.871094 C 252.351562 105.789062 251.003906 104.738281 249.632812 103.722656 C 248.261719 102.703125 246.867188 101.722656 245.449219 100.773438 C 244.027344 99.824219 242.585938 98.914062 241.125 98.035156 C 239.660156 97.15625 238.175781 96.316406 236.667969 95.511719 C 235.164062 94.707031 233.640625 93.941406 232.097656 93.210938 C 230.554688 92.480469 228.992188 91.789062 227.414062 91.136719 C 225.839844 90.480469 224.246094 89.867188 222.640625 89.292969 C 221.03125 88.71875 219.410156 88.183594 217.777344 87.6875 C 216.144531 87.191406 214.5 86.734375 212.84375 86.320312 C 211.1875 85.90625 209.523438 85.53125 207.847656 85.199219 C 206.175781 84.867188 204.492188 84.574219 202.804688 84.324219 C 201.117188 84.074219 199.421875 83.863281 197.722656 83.699219 C 196.023438 83.53125 194.324219 83.40625 192.617188 83.320312 C 190.914062 83.238281 189.207031 83.195312 187.5 83.195312 Z M 187.5 276.902344 L 187.5 98.097656 C 188.964844 98.097656 190.425781 98.132812 191.886719 98.203125 C 193.347656 98.277344 194.808594 98.382812 196.261719 98.527344 C 197.71875 98.671875 199.171875 98.847656 200.617188 99.0625 C 202.066406 99.277344 203.507812 99.527344 204.941406 99.8125 C 206.375 100.097656 207.804688 100.417969 209.222656 100.773438 C 210.644531 101.128906 212.050781 101.519531 213.453125 101.945312 C 214.851562 102.371094 216.242188 102.828125 217.621094 103.320312 C 218.996094 103.816406 220.363281 104.339844 221.714844 104.902344 C 223.066406 105.460938 224.402344 106.054688 225.726562 106.679688 C 227.046875 107.304688 228.355469 107.964844 229.644531 108.652344 C 230.933594 109.34375 232.207031 110.0625 233.460938 110.816406 C 234.71875 111.566406 235.953125 112.351562 237.171875 113.164062 C 238.386719 113.976562 239.582031 114.820312 240.757812 115.691406 C 241.933594 116.5625 243.085938 117.460938 244.21875 118.390625 C 245.347656 119.316406 246.457031 120.273438 247.539062 121.257812 C 248.625 122.238281 249.683594 123.246094 250.71875 124.28125 C 251.753906 125.316406 252.761719 126.375 253.742188 127.460938 C 254.726562 128.542969 255.683594 129.652344 256.609375 130.78125 C 257.539062 131.914062 258.4375 133.066406 259.308594 134.242188 C 260.179688 135.417969 261.023438 136.613281 261.835938 137.828125 C 262.648438 139.046875 263.433594 140.28125 264.183594 141.539062 C 264.9375 142.792969 265.65625 144.066406 266.347656 145.355469 C 267.035156 146.644531 267.695312 147.953125 268.320312 149.273438 C 268.945312 150.597656 269.539062 151.933594 270.097656 153.285156 C 270.660156 154.636719 271.183594 156.003906 271.679688 157.378906 C 272.171875 158.757812 272.628906 160.148438 273.054688 161.546875 C 273.480469 162.949219 273.867188 164.355469 274.226562 165.777344 C 274.582031 167.195312 274.902344 168.625 275.1875 170.058594 C 275.472656 171.492188 275.722656 172.933594 275.9375 174.382812 C 276.152344 175.828125 276.328125 177.28125 276.472656 178.738281 C 276.617188 180.191406 276.722656 181.652344 276.796875 183.113281 C 276.867188 184.574219 276.902344 186.035156 276.902344 187.5 C 276.902344 188.964844 276.867188 190.425781 276.796875 191.886719 C 276.722656 193.347656 276.617188 194.808594 276.472656 196.261719 C 276.328125 197.71875 276.152344 199.171875 275.9375 200.617188 C 275.722656 202.066406 275.472656 203.507812 275.1875 204.941406 C 274.902344 206.375 274.582031 207.804688 274.222656 209.222656 C 273.867188 210.644531 273.480469 212.050781 273.054688 213.453125 C 272.628906 214.851562 272.171875 216.242188 271.679688 217.621094 C 271.183594 218.996094 270.660156 220.363281 270.097656 221.714844 C 269.539062 223.066406 268.945312 224.402344 268.320312 225.726562 C 267.695312 227.046875 267.035156 228.355469 266.347656 229.644531 C 265.65625 230.933594 264.9375 232.207031 264.183594 233.460938 C 263.433594 234.71875 262.648438 235.953125 261.835938 237.171875 C 261.023438 238.386719 260.179688 239.582031 259.308594 240.757812 C 258.4375 241.933594 257.539062 243.085938 256.609375 244.21875 C 255.683594 245.347656 254.726562 246.457031 253.742188 247.539062 C 252.761719 248.625 251.753906 249.683594 250.71875 250.71875 C 249.683594 251.753906 248.625 252.761719 247.539062 253.742188 C 246.457031 254.726562 245.347656 255.683594 244.21875 256.609375 C 243.085938 257.539062 241.933594 258.4375 240.757812 259.308594 C 239.582031 260.179688 238.386719 261.023438 237.171875 261.835938 C 235.953125 262.648438 234.71875 263.433594 233.460938 264.183594 C 232.207031 264.9375 230.933594 265.65625 229.644531 266.347656 C 228.355469 267.035156 227.046875 267.695312 225.726562 268.320312 C 224.402344 268.945312 223.066406 269.539062 221.714844 270.097656 C 220.363281 270.660156 218.996094 271.183594 217.621094 271.675781 C 216.242188 272.171875 214.851562 272.628906 213.453125 273.054688 C 212.050781 273.480469 210.644531 273.867188 209.222656 274.226562 C 207.804688 274.582031 206.375 274.902344 204.941406 275.1875 C 203.507812 275.472656 202.066406 275.722656 200.617188 275.9375 C 199.171875 276.152344 197.71875 276.328125 196.261719 276.472656 C 194.808594 276.617188 193.347656 276.722656 191.886719 276.796875 C 190.425781 276.867188 188.964844 276.902344 187.5 276.902344 Z M 187.5 276.902344 " fill-opacity="1" fill-rule="nonzero"/><path stroke-linecap="round" transform="matrix(4.966887, 0, 0, 4.966887, 0.0000045, 0)" fill="none" stroke-linejoin="round" d="M 37.750002 10.7501 L 37.750002 0.750281 " stroke="#000000" stroke-width="1.5" stroke-opacity="1" stroke-miterlimit="4"/><path stroke-linecap="round" transform="matrix(4.966887, 0, 0, 4.966887, 0.0000045, 0)" fill="none" stroke-linejoin="round" d="M 24.249657 14.370168 L 19.250141 5.709688 " stroke="#000000" stroke-width="1.5" stroke-opacity="1" stroke-miterlimit="4"/><path stroke-linecap="round" transform="matrix(4.966887, 0, 0, 4.966887, 0.0000045, 0)" fill="none" stroke-linejoin="round" d="M 14.370167 24.249658 L 5.709687 19.250142 " stroke="#000000" stroke-width="1.5" stroke-opacity="1" stroke-miterlimit="4"/><path stroke-linecap="round" transform="matrix(4.966887, 0, 0, 4.966887, 0.0000045, 0)" fill="none" stroke-linejoin="round" d="M 10.750099 37.750003 L 0.75028 37.750003 " stroke="#000000" stroke-width="1.5" stroke-opacity="1" stroke-miterlimit="4"/><path stroke-linecap="round" transform="matrix(4.966887, 0, 0, 4.966887, 0.0000045, 0)" fill="none" stroke-linejoin="round" d="M 14.370167 51.250348 L 5.709687 56.249864 " stroke="#000000" stroke-width="1.5" stroke-opacity="1" stroke-miterlimit="4"/><path stroke-linecap="round" transform="matrix(4.966887, 0, 0, 4.966887, 0.0000045, 0)" fill="none" stroke-linejoin="round" d="M 24.249657 61.129838 L 19.250141 69.790318 " stroke="#000000" stroke-width="1.5" stroke-opacity="1" stroke-miterlimit="4"/><path stroke-linecap="round" transform="matrix(4.966887, 0, 0, 4.966887, 0.0000045, 0)" fill="none" stroke-linejoin="round" d="M 37.750002 64.749906 L 37.750002 74.749725 " stroke="#000000" stroke-width="1.5" stroke-opacity="1" stroke-miterlimit="4"/><path stroke-linecap="round" transform="matrix(4.966887, 0, 0, 4.966887, 0.0000045, 0)" fill="none" stroke-linejoin="round" d="M 51.250347 61.129838 L 56.249863 69.790318 " stroke="#000000" stroke-width="1.5" stroke-opacity="1" stroke-miterlimit="4"/><path stroke-linecap="round" transform="matrix(4.966887, 0, 0, 4.966887, 0.0000045, 0)" fill="none" stroke-linejoin="round" d="M 61.129837 51.250348 L 69.790317 56.249864 " stroke="#000000" stroke-width="1.5" stroke-opacity="1" stroke-miterlimit="4"/><path stroke-linecap="round" transform="matrix(4.966887, 0, 0, 4.966887, 0.0000045, 0)" fill="none" stroke-linejoin="round" d="M 64.749905 37.750003 L 74.749724 37.750003 " stroke="#000000" stroke-width="1.5" stroke-opacity="1" stroke-miterlimit="4"/><path stroke-linecap="round" transform="matrix(4.966887, 0, 0, 4.966887, 0.0000045, 0)" fill="none" stroke-linejoin="round" d="M 61.129837 24.249658 L 69.790317 19.250142 " stroke="#000000" stroke-width="1.5" stroke-opacity="1" stroke-miterlimit="4"/><path stroke-linecap="round" transform="matrix(4.966887, 0, 0, 4.966887, 0.0000045, 0)" fill="none" stroke-linejoin="round" d="M 51.250347 14.370168 L 56.249863 5.709688 " stroke="#000000" stroke-width="1.5" stroke-opacity="1" stroke-miterlimit="4"/><path stroke-linecap="butt" transform="matrix(0.704845, -0.256307, 0.256307, 0.704845, -0.51261, 373.590297)" fill="none" stroke-linejoin="miter" d="M -0.0000115106 2.000014 L -0.0000115106 2.000014 " stroke="#000000" stroke-width="4" stroke-opacity="1" stroke-miterlimit="4"/></svg>